<svg xmlns="http://www.w3.org/2000/svg" style="display:none">  
<!-- Inicio -->
  <symbol id="inicio" viewBox="0 -960 960 960">
  <path d="M240-200h120v-240h240v240h120v-360L480-740 240-560v360Zm-80 80v-480l320-240 320 240v480H520v-240h-80v240H160Zm320-350Z"/>
  </symbol>
<!-- Paleta de colores -->
  <symbol id="paleta" viewBox="0 -960 960 960">
  <path d="M480-80q-82 0-155-31.5t-127.5-86Q143-252 111.5-325T80-480q0-83 32.5-156t88-127Q256-817 330-848.5T488-880q80 0 151 27.5t124.5 76q53.5 48.5 85 115T880-518q0 115-70 176.5T640-280h-74q-9 0-12.5 5t-3.5 11q0 12 15 34.5t15 51.5q0 50-27.5 74T480-80Zm0-400Zm-220 40q26 0 43-17t17-43q0-26-17-43t-43-17q-26 0-43 17t-17 43q0 26 17 43t43 17Zm120-160q26 0 43-17t17-43q0-26-17-43t-43-17q-26 0-43 17t-17 43q0 26 17 43t43 17Zm200 0q26 0 43-17t17-43q0-26-17-43t-43-17q-26 0-43 17t-17 43q0 26 17 43t43 17Zm120 160q26 0 43-17t17-43q0-26-17-43t-43-17q-26 0-43 17t-17 43q0 26 17 43t43 17ZM480-160q9 0 14.5-5t5.5-13q0-14-15-33t-15-57q0-42 29-67t71-25h70q66 0 113-38.5T800-518q0-121-92.5-201.5T488-800q-136 0-232 93t-96 227q0 133 93.5 226.5T480-160Z" />
  </symbol>
<!-- Partes del cuerpo -->
  <symbol id="cuerpo" viewBox="0 -960 960 960"><path d="M440-84 244-280H40v-80h236l138 137-59-117h445q17 0 28.5 11.5T840-300q0 17-11.5 28.5T800-260H485l6 12q17 35 10.5 72.5T468-111l-28 27ZM40-600v-80h184l44-45q17-17 39-26t46-9h407q17 0 28.5 11.5T800-720q0 17-11.5 28.5T760-680H353q-8 0-15 3.5t-13 8.5l-69 68H40Zm0 120Zm520 80v-80h320q17 0 28.5 11.5T920-440q0 17-11.5 28.5T880-400H560Zm0-140v-80h280q17 0 28.5 11.5T880-580q0 17-11.5 28.5T840-540H560Z"/>
  </symbol>
  <!-- Cabeza -->
  <symbol id="cabeza" viewBox="0 -960 960 960" fill="#ECB576">
  <path d="M360-390q-21 0-35.5-14.5T310-440q0-21 14.5-35.5T360-490q21 0 35.5 14.5T410-440q0 21-14.5 35.5T360-390Zm240 0q-21 0-35.5-14.5T550-440q0-21 14.5-35.5T600-490q21 0 35.5 14.5T650-440q0 21-14.5 35.5T600-390ZM480-160q134 0 227-93t93-227q0-24-3-46.5T786-570q-21 5-42 7.5t-44 2.5q-91 0-172-39T390-708q-32 78-91.5 135.5T160-486v6q0 134 93 227t227 93Zm0 80q-83 0-156-31.5T197-197q-54-54-85.5-127T80-480q0-83 31.5-156T197-763q54-54 127-85.5T480-880q83 0 156 31.5T763-763q54 54 85.5 127T880-480q0 83-31.5 156T763-197q-54 54-127 85.5T480-80Zm-54-715q42 70 114 112.5T700-640q14 0 27-1.5t27-3.5q-42-70-114-112.5T480-800q-14 0-27 1.5t-27 3.5ZM177-581q51-29 89-75t57-103q-51 29-89 75t-57 103Zm249-214Zm-103 36Z"/></symbol>
  <!-- Craneo -->
  <svg id="craneo" viewBox="0 -960 960 960" fill="#CCCCCC"><path d="M240-80v-170q-39-17-68.5-45.5t-50-64.5q-20.5-36-31-77T80-520q0-158 112-259t288-101q176 0 288 101t112 259q0 42-10.5 83t-31 77q-20.5 36-50 64.5T720-250v170H240Zm80-80h40v-80h80v80h80v-80h80v80h40v-142q38-9 67.5-30t50-50q20.5-29 31.5-64t11-74q0-125-88.5-202.5T480-800q-143 0-231.5 77.5T160-520q0 39 11 74t31.5 64q20.5 29 50.5 50t67 30v142Zm100-200h120l-60-120-60 120Zm-80-80q33 0 56.5-23.5T420-520q0-33-23.5-56.5T340-600q-33 0-56.5 23.5T260-520q0 33 23.5 56.5T340-440Zm280 0q33 0 56.5-23.5T700-520q0-33-23.5-56.5T620-600q-33 0-56.5 23.5T540-520q0 33 23.5 56.5T620-440ZM480-160Z"/></svg>
<!-- Animales -->
  <symbol id="animales" viewBox="0 -960 960 960"><path d="M194-80v-395h80v315h280v-193l105-105q29-29 45-65t16-77q0-40-16.5-76T659-741l-25-26-127 127H347l-43 43-57-56 67-67h160l160-160 82 82q40 40 62 90.5T800-600q0 57-22 107.5T716-402l-82 82v240H194Zm197-187L183-475q-11-11-17-26t-6-31q0-16 6-30.5t17-25.5l84-85 124 123q28 28 43.5 64.5T450-409q0 40-15 76.5T391-267Z"/></symbol>

</svg>